<svg xmlns="http://www.w3.org/2000/svg" xmlns:xlink="http://www.w3.org/1999/xlink" width="34" height="34" version="1.1" viewBox="0 0 34 34"><title>Shape</title><desc>Created with Sketch.</desc><g id="Page-1" fill="none" fill-rule="evenodd" stroke="none" stroke-width="1"><g id="Desktop-HD" fill="#FB6021" fill-rule="nonzero" transform="translate(-415.000000, -805.000000)"><g id="Group-6-Copy" transform="translate(396.000000, 786.000000)"><path id="Shape" d="M36,21.8333333 C43.8115,21.8333333 50.1666667,28.1885 50.1666667,36 C50.1666667,43.8115 43.8115,50.1666667 36,50.1666667 C28.1885,50.1666667 21.8333333,43.8115 21.8333333,36 C21.8333333,28.1885 28.1885,21.8333333 36,21.8333333 Z M36,19 C26.61175,19 19,26.61175 19,36 C19,45.38825 26.61175,53 36,53 C45.38825,53 53,45.38825 53,36 C53,26.61175 45.38825,19 36,19 Z M44.5,37.4166667 L37.4166667,37.4166667 L37.4166667,44.5 L34.5833333,44.5 L34.5833333,37.4166667 L27.5,37.4166667 L27.5,34.5833333 L34.5833333,34.5833333 L34.5833333,27.5 L37.4166667,27.5 L37.4166667,34.5833333 L44.5,34.5833333 L44.5,37.4166667 Z"/></g></g></g></svg>